<svg xmlns="http://www.w3.org/2000/svg" fill="none" viewBox="0 0 98 80"><g clip-path="url(#handHeart_svg__clip0_245_24019)"><path fill="#EBE6DD" d="M50.63 32.33c1.871 1.04 1.906 3.465 1.69 4.547 2.728 3.119 3.377-1.169 5.586-4.546 2.208-3.378 7.534-7.276 13.9-15.85 6.366-8.574.26-12.99-1.17-13.77-1.428-.78-4.546-1.949-8.963 0-3.534 1.559-6.236 8.01-7.145 11.042-.78-5.327-7.435-16.423-15.59-11.042-6.495 4.287-2.727 14.16-2.598 16.37.13 2.208 11.952 11.95 14.29 13.25"></path><mask id="handHeart_svg__a" width="98" height="81" x="0" y="0" maskUnits="userSpaceOnUse" style="mask-type:luminance"><path fill="#fff" d="M97.806.002H.836v80h96.97z"></path></mask><g mask="url(#handHeart_svg__a)"><path stroke="currentColor" stroke-linecap="round" stroke-linejoin="round" stroke-width="1.794" d="M46.637 43.512s-18.231-4.584-30.52 5.383C3.828 58.862 1.582 58.741 1.582 58.741l18.292 20.51 6.85-4.745s4.492-2.843 24.103-1.902c19.612.94 28.113-11.161 28.113-11.161s16.308-23.74 17.718-24.215c1.41-.476-1.158-3.977-5.198-2.61-4.925 1.659-13.205 13.518-19.349 18.264-6.144 4.746-27.911 4.048-26.733.01 1.178-4.037 25.05-2.843 18.906-9.016-6.144-6.172-12.993 1.903-8.5-7.832C60.275 26.31 84.44 12.518 71.385 3.3c-12.128-8.57-16.761 9.188-17.003 10.17 0 .01-.02.01-.02 0-.272-.87-4.966-15.3-13.215-12.305-8.502 3.087-11.342 18.75 7.09 28.96 0 0 3.325 1.741 3.214 4.382"></path></g></g></svg>