<svg xmlns="http://www.w3.org/2000/svg" fill="none" viewBox="0 0 82 80"><g clip-path="url(#heart_svg__clip0_245_24033)"><path fill="#EBE6DD" d="M23.924 54.437c5.42 5.002 10.335 13.897 12.115 17.719 1.433 7.686 6.644-2.866 7.295-3.648.652-.782.912-8.728 1.434-15.503.52-6.774-4.95-30.094-10.162-36.216-5.21-6.123-16.284-4.95-22.277-.912-5.993 4.038-7.165 10.552-7.165 17.326 0 6.774 11.985 14.981 18.76 21.234"></path><mask id="heart_svg__a" width="81" height="80" x="1" y="0" maskUnits="userSpaceOnUse" style="mask-type:luminance"><path fill="#fff" d="M81.32 0h-80v80h80z"></path></mask><g mask="url(#heart_svg__a)"><path stroke="currentColor" stroke-linecap="round" stroke-miterlimit="10" stroke-width="1.5" d="M52.487 33.65c-6.664-2.746-9.04-9.979-6.142-15.133 2.915-5.18 9.228-9 15.06-9.65 7.194-.8 14.876 2.495 17.458 9.655 7.904 21.797-16.801 34.074-30.066 45.053a53.13 53.13 0 0 0-3.476 3.132c-2.803 2.776-6.181 5.763-7.778 9.517-.258.598-.864 2.635.199 2.827 1.349.243 3.356-3.547 3.793-4.443 1.229-2.482 1.821-5.251 2.194-7.98a89.89 89.89 0 0 0-2.483-36.504c-1.257-4.47-2.939-8.973-6.094-12.369-5.268-5.668-14.493-7.117-21.231-3.336C7.18 18.2 3.57 26.851 5.608 34.331c1.413 5.182 5.11 9.428 9.138 12.963 8.659 7.598 17.37 13.435 20.714 25.163"></path></g></g></svg>