<svg xmlns="http://www.w3.org/2000/svg" fill="none" viewBox="0 0 82 80"><path fill="#EBE6DD" d="M29.795 28.538c8.156-4.66 15.778-3.399 18.57-2.186 6.06 1.12 10.923 8.74 11.044 12.138.097 2.718-5.704 5.097-8.617 5.947.728.728-.971 3.52-2.428 8.253-1.456 4.733-7.767 10.195-10.68 10.316-2.913.122-4.855-12.622-5.22-16.142-.363-3.52-8.131-5.219-8.98-5.583-.85-.364-3.885-6.917 6.31-12.743"></path><path fill="currentColor" d="M61.178 12.048a31.574 31.574 0 0 0-12.02-6.264c-4.541-1.109-10.685-1.055-13.156 2.67a5.343 5.343 0 0 0 1.336 7.04c-1.523 1.535-3.099 1.068-4.915.534-1.817-.535-3.673-1.082-5.343.507l-.48.44.427.495c1.002 1.162 2.324 4.007 1.563 5.115-.294.388-.601.748-.882 1.082a4.006 4.006 0 0 0-1.335 2.671 2.964 2.964 0 0 0 1.335 1.964c.32.254.668.494 1.015.721a14.558 14.558 0 0 0-4.861 4.968c-1.456 2.672-2.217 6.518.427 8.869a9.603 9.603 0 0 0 3.339 1.816 6.451 6.451 0 0 1 3.5 2.177c1.442 2.084 1.789 4.688 2.15 7.44a27.021 27.021 0 0 0 1.135 5.502c.815 2.284 2.07 3.58 3.713 3.847 3.178.52 6.317-3.032 7.199-4.14l.494-.615.52-.654c.143.347.357.661.629.921a3.098 3.098 0 0 0 3.512.922c2.324-.868 4.007-4.26 4.1-6.21a2.177 2.177 0 0 0-.387-1.564c-.574-.694-1.59-.788-2.791-.227-.61.274-1.196.6-1.75.975l.067-.093a11.62 11.62 0 0 0 1.643-6.21c-.001-.725-.055-1.448-.16-2.164 1.18-.136 2.333-.45 3.418-.935a11.006 11.006 0 0 0 5.757-6.064 5.5 5.5 0 0 0 .16-.895 13.517 13.517 0 0 1 5.93.575 4.141 4.141 0 0 1 2.671 2.858c.106.296.19.6.254.908.28 1.122.668 2.671 2.15 3.045l.348-1.335c-.681-.174-.909-.935-1.202-2.07a8.619 8.619 0 0 0-.308-1.07 5.463 5.463 0 0 0-3.379-3.605 14.398 14.398 0 0 0-6.477-.668 4.622 4.622 0 0 0-.721-1.696 4.007 4.007 0 0 0-3.66-1.336 2.831 2.831 0 0 0-2.484 1.456 1.896 1.896 0 0 0 .374 1.963 3.085 3.085 0 0 0 2.07.962c1.038.114 2.083.14 3.125.08 0 .147 0 .307-.093.468a9.643 9.643 0 0 1-5.022 5.195 10.68 10.68 0 0 1-3.139.855 8.936 8.936 0 0 0-5.983-6.852c-1.937-.534-2.671.348-2.965.922-.762 1.55.334 4.354 1.736 5.342 1.777 1.303 3.926 2 6.13 1.99.097.686.142 1.378.134 2.07a10.138 10.138 0 0 1-1.523 5.476c-.173.294-.4.628-.64.975a11.78 11.78 0 0 0-1.59 2.885l-1.51 1.95-.48.615c-1.51 1.883-4.007 4.006-5.943 3.646-1.122-.187-2.03-1.189-2.672-2.979-.535-1.699-.893-3.449-1.068-5.222-.374-2.791-.748-5.676-2.364-8.013a7.68 7.68 0 0 0-4.167-2.672 8.603 8.603 0 0 1-2.898-1.469c-2.044-1.816-1.336-5.022-.147-7.212a13.584 13.584 0 0 1 4.794-4.821 33.217 33.217 0 0 0 9.35 2.938c1.95.334 7.572.721 10.017-1.51a3.513 3.513 0 0 0 1.161-3.018c-.186-2.337-2.804-3.526-5.182-3.633a30.438 30.438 0 0 0-15.306 3.7 13.009 13.009 0 0 1-1.482-1.069c-.494-.4-.761-.747-.788-1.041-.027-.294.467-1.055 1.055-1.737.307-.36.628-.747.935-1.162 1.256-1.723-.187-4.74-1.202-6.21.988-.588 2.083-.307 3.646.147 1.95.574 4.368 1.335 6.518-1.175a5.462 5.462 0 0 0 5.516-1.27 2.792 2.792 0 0 0 .694-3.231 2.377 2.377 0 0 0-2.738-.869c-1.589.374-2.67 1.964-3.526 3.26l-.32.453a3.887 3.887 0 0 1-1.496-2.297 3.782 3.782 0 0 1 .44-2.951c2.044-3.193 7.587-3.152 11.7-2.15a30.423 30.423 0 0 1 11.54 5.996c6.344 5.142 13.062 11.753 14.839 21.864a40.89 40.89 0 0 1 .614 7.626 29.517 29.517 0 0 1-12.421 23.827 38.732 38.732 0 0 1-33.39 5.53 33.03 33.03 0 0 1-19.874-17.457 34.338 34.338 0 0 1-.4-28.208c3.499-7.946 9.028-13.756 17.362-18.257l-.64-1.176c-8.642 4.648-14.358 10.685-17.991 18.9a35.78 35.78 0 0 0 .414 29.315 34.363 34.363 0 0 0 20.715 18.151 40.16 40.16 0 0 0 34.605-5.716 30.866 30.866 0 0 0 12.942-24.896 41.225 41.225 0 0 0-.64-7.866c-1.857-10.618-9.096-17.697-15.307-22.665M56.29 35.327a1.964 1.964 0 0 1-1.189-.467c-.147-.187-.294-.454-.213-.642a1.748 1.748 0 0 1 1.335-.654h.481a2.511 2.511 0 0 1 2.043.842c.219.302.382.641.481 1.001-.98.058-1.963.03-2.938-.08m-11.727 6.304a4.007 4.007 0 0 1-1.335-3.726.681.681 0 0 1 .681-.348c.25.007.496.048.735.12a7.532 7.532 0 0 1 4.981 5.664 8.895 8.895 0 0 1-5.062-1.683zm2.965 15.066a13.249 13.249 0 0 1 4.421-3.513c.575-.254 1.069-.307 1.216-.134.09.201.118.425.08.642-.094 1.535-1.523 4.407-3.232 5.048a1.87 1.87 0 0 1-2.097-.614 1.483 1.483 0 0 1-.388-1.43m-2.457-30.72c1.496 0 3.78.762 3.9 2.405a2.217 2.217 0 0 1-.721 1.923c-1.897 1.723-6.812 1.536-8.895 1.189a33.151 33.151 0 0 1-8.148-2.43 29.382 29.382 0 0 1 13.864-3.086M39.568 14.76c.775-1.135 1.643-2.444 2.672-2.671.654-.147 1.135 0 1.335.253a1.536 1.536 0 0 1-.48 1.617 4.086 4.086 0 0 1-3.754 1.068z"></path></svg>