<svg xmlns="http://www.w3.org/2000/svg" fill="none" viewBox="0 0 81 80"><path fill="#EBE6DD" d="M22.977 13.327c-6.927.243-9.941 8.316-10.582 12.322 0 5.881 1.375 15.029 13.854 13.836 12.159-1.162 11.32-12.467 11.32-15.662 0-3.194-5.933-10.8-14.592-10.496M55.598 13.327c-6.926.248-9.941 8.479-10.582 12.563 0 5.997 1.5 16.251 13.855 14.107C69.064 38.228 70.19 27.287 70.19 24.03c0-3.257-5.933-11.011-14.592-10.702"></path><path stroke="currentColor" stroke-miterlimit="10" stroke-width="1.5" d="M75.438 65.678c.513-1.468.412-3.501.08-5.478-.784-4.67-2.8-8.96-5.78-12.301-8.769-9.841-16.917-4.445-22.328-11.555-5.7-7.488-2.5-12.04-1.647-14.696 1.257-3.92 8.222-10.147 16.434-6.766 9.6 3.953 9.687 14.516 4.826 19.945-2.89 3.182-8.777 5.42-14.224 7.766-6.526 2.767-11.96 8.1-15.314 15.032-2.225 4.666-2.853 9.021.527 9.53 9.182 1.336 2.808-15.023 2.808-15.023-10.25-17.394-19.083-7.99-25.476-16.01-4.861-6.101-2.665-12.301-1.647-14.696 1.457-3.425 6.906-11.58 16.434-6.765 9.333 4.707 9.687 14.515 4.826 19.944-4.862 5.43-18.739 8.16-23.803 13.302-5.287 5.404-6.277 16.46-6.277 16.46"></path></svg>